HIERARCHY
ROOT Pelvis
{
	OFFSET 0.000000 0.941512 0.000000
	CHANNELS 6 Xposition Yposition Zposition Zrotation Yrotation Xrotation 
	JOINT Pelvis_L_Hip
	{
		OFFSET 0.000000 0.000000 0.000000
		CHANNELS 3 Zrotation Yrotation Xrotation
		JOINT L_Hip
		{
			OFFSET 0.062321 -0.080322 -0.016990
			CHANNELS 3 Zrotation Yrotation Xrotation
			JOINT L_Knee
			{
				OFFSET 0.093051 -0.381305 -0.029784
				CHANNELS 3 Zrotation Yrotation Xrotation
				JOINT L_Ankle
				{
					OFFSET -0.010371 -0.431000 -0.033614
					CHANNELS 3 Zrotation Yrotation Xrotation
					End Site #name: L_Foot
					{
						OFFSET 0.069299 -0.038670 0.119418
					}
				}
			}
		}
	}
	JOINT Pelvis_R_Hip
	{
		OFFSET 0.000000 0.000000 0.000000
		CHANNELS 3 Zrotation Yrotation Xrotation
		JOINT R_Hip
		{
			OFFSET -0.055334 -0.094904 -0.002373
			CHANNELS 3 Zrotation Yrotation Xrotation
			JOINT R_Knee
			{
				OFFSET -0.064207 -0.384370 -0.019592
				CHANNELS 3 Zrotation Yrotation Xrotation
				JOINT R_Ankle
				{
					OFFSET 0.025418 -0.419734 -0.065953
					CHANNELS 3 Zrotation Yrotation Xrotation
					End Site #name: R_Foot
					{
						OFFSET -0.057233 -0.039888 0.132134
					}
				}
			}
		}
	}
	JOINT Pelvis_Spine1
	{
		OFFSET 0.000000 0.000000 0.000000
		CHANNELS 3 Zrotation Yrotation Xrotation
		JOINT Spine1
		{
			OFFSET -0.005562 0.124093 -0.043360
			CHANNELS 3 Zrotation Yrotation Xrotation
			JOINT Spine2
			{
				OFFSET 0.012244 0.139499 0.029894
				CHANNELS 3 Zrotation Yrotation Xrotation
				JOINT Spine3
				{
					OFFSET -0.002556 0.056561 0.009225
					CHANNELS 3 Zrotation Yrotation Xrotation
					JOINT Spine3_Neck
					{
						OFFSET 0.000000 0.000000 0.000000
						CHANNELS 3 Zrotation Yrotation Xrotation
						JOINT Neck
						{
							OFFSET -0.005205 0.217920 -0.024551
							CHANNELS 3 Zrotation Yrotation Xrotation
							End Site #name: Head
							{
								OFFSET 0.002365 0.091850 0.046637
							}
						}
					}
					JOINT Spine3_L_Collar
					{
						OFFSET 0.000000 0.000000 0.000000
						CHANNELS 3 Zrotation Yrotation Xrotation
						JOINT L_Collar
						{
							OFFSET 0.072225 0.116603 -0.009480
							CHANNELS 3 Zrotation Yrotation Xrotation
							JOINT L_Shoulder
							{
								OFFSET 0.115937 -0.058643 -0.021018
								CHANNELS 3 Zrotation Yrotation Xrotation
								JOINT L_Elbow
								{
									OFFSET 0.021994 -0.254722 -0.024492
									CHANNELS 3 Zrotation Yrotation Xrotation
									End Site #name: L_Wrist
									{
										OFFSET 0.048810 -0.240214 0.103329
									}
								}
							}
						}
					}
					JOINT Spine3_R_Collar
					{
						OFFSET 0.000000 0.000000 0.000000
						CHANNELS 3 Zrotation Yrotation Xrotation
						JOINT R_Collar
						{
							OFFSET -0.073372 0.120704 -0.024611
							CHANNELS 3 Zrotation Yrotation Xrotation
							JOINT R_Shoulder
							{
								OFFSET -0.108089 -0.054969 -0.020504
								CHANNELS 3 Zrotation Yrotation Xrotation
								JOINT R_Elbow
								{
									OFFSET -0.033684 -0.260739 0.009889
									CHANNELS 3 Zrotation Yrotation Xrotation
									End Site #name: R_Wrist
									{
										OFFSET -0.067980 -0.232763 0.118463
									}
								}
							}
						}
					}
				}
			}
		}
	}
}
MOTION
Frames: 13
Frame Time: 0.041667
0.159498 0.924504 1.471195 -0.794750 1.374358 -4.162222 0.000000 0.000000 0.000000 -13.959529 6.215625 13.712749 11.507042 -1.972530 8.414063 2.163175 -12.161617 -9.051690 0.000000 0.000000 0.000000 5.208267 5.147444 -25.269001 -8.116630 1.714531 3.203032 1.471104 4.961990 0.006815 0.000000 0.000000 0.000000 4.305559 0.072918 -7.631644 -1.739119 3.452407 49.780755 -1.172122 -1.634076 -42.766414 0.000000 0.000000 0.000000 -1.100383 -0.042953 28.079996 0.000000 0.000000 0.000000 17.546477 -8.863791 -3.269802 -3.973831 -0.091985 -1.846848 -7.275079 -4.450008 -4.112173 0.000000 0.000000 0.000000 -11.960041 -3.167165 4.240046 9.880405 -0.925647 8.328522 1.751946 2.361626 -4.387277 
0.152081 0.921905 1.524416 -0.543737 2.300200 -4.380764 0.000000 0.000000 0.000000 -12.347496 7.039262 16.990998 10.900255 -1.991329 9.298029 1.938238 -13.059265 -8.975395 0.000000 0.000000 0.000000 5.035761 5.109641 -25.413102 -7.099285 2.199394 8.671728 1.586256 3.856167 0.979643 0.000000 0.000000 0.000000 3.132775 0.296618 -8.126068 -2.022716 3.545834 50.912783 -0.309139 -1.036282 -42.975918 0.000000 0.000000 0.000000 -0.278321 -0.685162 26.243791 0.000000 0.000000 0.000000 17.570514 -8.006127 -2.595935 -4.228046 0.062524 -0.721826 -8.231129 -5.163656 -4.834228 0.000000 0.000000 0.000000 -11.635124 -4.448949 4.958522 10.010068 -1.148800 9.323894 1.715062 2.582824 -5.090062 
0.143115 0.921962 1.580491 -1.272270 3.228797 -3.799121 0.000000 0.000000 0.000000 -9.511243 6.879761 18.634621 10.016300 -2.148283 11.774353 0.553944 -14.210238 -7.235037 0.000000 0.000000 0.000000 5.626863 5.169394 -25.369937 -5.679421 2.350121 13.252669 3.432351 3.864447 5.061204 0.000000 0.000000 0.000000 4.125440 0.217889 -8.536668 -2.486723 3.627843 50.620100 -0.155778 -0.748036 -43.451493 0.000000 0.000000 0.000000 -0.071303 -0.888392 25.327583 0.000000 0.000000 0.000000 15.925113 -6.765705 -1.862646 -3.446050 0.390152 2.096640 -8.849527 -5.493742 -4.858430 0.000000 0.000000 0.000000 -11.156436 -5.380060 5.388193 9.244761 -1.562985 11.196198 2.299800 2.701842 -4.467518 
0.133794 0.926531 1.640077 -2.558537 3.307343 -3.319071 0.000000 0.000000 0.000000 -6.203092 6.171242 19.088792 8.409952 -2.347354 16.302337 -2.595783 -14.173917 -2.519699 0.000000 0.000000 0.000000 7.431529 5.197213 -24.048290 -4.750665 2.391161 16.373393 4.429287 4.661683 6.646880 0.000000 0.000000 0.000000 5.846614 0.042061 -8.928261 -3.165349 4.013778 50.194215 0.041195 -0.122243 -43.578474 0.000000 0.000000 0.000000 -0.770944 -0.406862 23.928099 0.000000 0.000000 0.000000 15.336584 -5.341081 -0.888733 -4.408966 0.790891 4.768912 -7.564458 -4.757653 -4.613063 0.000000 0.000000 0.000000 -11.150364 -5.283817 5.280825 9.108483 -1.815192 12.381160 2.327894 2.092196 -2.672703 
0.125179 0.934929 1.699050 -3.511335 2.825579 -3.655029 0.000000 0.000000 0.000000 -3.221643 5.032281 17.689718 5.237995 -2.298358 24.172712 -7.014831 -11.230060 5.259250 0.000000 0.000000 0.000000 9.441249 4.528917 -19.840607 -4.242675 2.245413 16.431216 3.715512 5.752009 4.341464 0.000000 0.000000 0.000000 6.957364 -0.259265 -7.863298 -4.070824 4.556482 48.493435 0.561083 0.851381 -43.166821 0.000000 0.000000 0.000000 -1.660786 0.184606 23.093899 0.000000 0.000000 0.000000 15.068665 -4.282029 -0.134026 -5.504799 1.247328 7.449965 -6.033852 -3.718312 -3.721076 0.000000 0.000000 0.000000 -11.493164 -4.353892 4.729167 9.281560 -1.974717 13.092291 2.230078 1.446537 -0.930103 
0.115956 0.942014 1.750807 -3.765054 2.637522 -3.521712 0.000000 0.000000 0.000000 -1.112249 3.163432 12.276837 1.114639 -1.665913 35.285122 -8.349222 -5.914318 9.949163 0.000000 0.000000 0.000000 10.854358 3.661504 -15.769513 -4.409924 2.163055 15.007656 2.892166 6.652302 1.998777 0.000000 0.000000 0.000000 6.757833 -0.377302 -6.885076 -4.863827 4.953810 46.801175 1.312243 1.856232 -42.879411 0.000000 0.000000 0.000000 -1.968321 0.364707 22.259718 0.000000 0.000000 0.000000 15.037812 -3.391338 0.536897 -5.894610 1.516353 9.086091 -5.853863 -3.283894 -2.547078 0.000000 0.000000 0.000000 -11.787355 -3.432094 4.165746 8.889641 -2.013874 13.292181 2.794969 1.642354 -0.633081 
0.108887 0.946968 1.794050 -3.706016 2.568994 -3.145043 0.000000 0.000000 0.000000 -0.008752 1.141390 4.736359 -2.620884 -0.386752 45.706499 -4.455278 -1.226740 6.613637 0.000000 0.000000 0.000000 11.719800 2.877024 -12.568673 -4.889872 2.176226 13.709013 2.260487 7.453385 0.164659 0.000000 0.000000 0.000000 6.612470 -0.467405 -6.153998 -5.719000 5.438548 46.016737 1.845046 2.713765 -42.824790 0.000000 0.000000 0.000000 -2.040571 0.388999 21.267601 0.000000 0.000000 0.000000 14.673531 -2.687335 1.005671 -5.562958 1.555583 9.664316 -6.582949 -3.448271 -1.937798 0.000000 0.000000 0.000000 -12.073618 -2.389333 3.516181 8.099606 -1.931426 12.959716 3.392446 2.359261 -1.779684 
0.105692 0.951579 1.833904 -3.334322 2.019108 -3.329360 0.000000 0.000000 0.000000 -0.128739 -0.497901 -2.084702 -4.649443 0.740418 51.699152 -1.174049 1.411472 2.792616 0.000000 0.000000 0.000000 12.182629 1.954839 -9.074740 -5.701083 2.291469 12.552755 1.817653 8.706205 -1.493846 0.000000 0.000000 0.000000 6.714784 -0.603364 -5.347385 -6.717531 6.137373 45.737956 2.109937 3.503266 -42.672335 0.000000 0.000000 0.000000 -2.388948 0.592588 21.244512 0.000000 0.000000 0.000000 14.225264 -2.038350 1.399488 -5.306105 1.532554 9.724444 -7.033917 -3.642151 -1.876974 0.000000 0.000000 0.000000 -12.505886 -1.202891 2.807550 7.609562 -1.786602 12.263708 3.328870 2.942051 -3.506993 
0.104953 0.955397 1.871681 -2.657598 1.082895 -3.665575 0.000000 0.000000 0.000000 -1.013460 -2.025824 -8.305227 -5.105118 1.231756 53.378315 0.414200 2.493335 0.710712 0.000000 0.000000 0.000000 12.336924 1.102639 -5.950417 -6.784104 2.545097 12.061993 1.146846 9.946367 -3.524199 0.000000 0.000000 0.000000 6.634098 -0.682663 -4.720076 -7.559662 6.791874 45.392115 2.112834 4.052191 -42.438182 0.000000 0.000000 0.000000 -2.772330 0.831423 22.163013 0.000000 0.000000 0.000000 13.936650 -1.370465 1.810145 -5.264816 1.531041 9.737528 -6.994418 -3.684205 -2.077390 0.000000 0.000000 0.000000 -12.839539 -0.210114 2.217637 7.317988 -1.608325 11.360535 3.045127 3.449724 -5.349879 
0.107735 0.956363 1.908527 -2.287415 0.555989 -3.802710 0.000000 0.000000 0.000000 -1.787687 -3.589793 -14.263386 -4.063783 0.724821 51.276397 1.068846 3.021525 -0.129354 0.000000 0.000000 0.000000 12.431795 0.294782 -3.048025 -7.559431 2.660640 11.283576 0.331876 10.634201 -5.498833 0.000000 0.000000 0.000000 7.618052 -0.932816 -4.175750 -8.276694 7.194984 44.484468 1.331259 3.785329 -41.957548 0.000000 0.000000 0.000000 -3.257951 1.160591 23.585029 0.000000 0.000000 0.000000 14.179891 -0.914298 2.176638 -5.808271 1.592022 9.664624 -6.493130 -3.536944 -2.381145 0.000000 0.000000 0.000000 -13.492418 0.450200 1.914214 7.795303 -1.404926 10.313331 2.821797 4.018062 -7.258168 
0.110588 0.956113 1.945293 -1.754996 -0.092531 -4.011506 0.000000 0.000000 0.000000 -2.333096 -4.803040 -18.676308 -2.247802 -0.120625 45.431185 1.268931 2.313402 -0.902461 0.000000 0.000000 0.000000 11.868392 -0.592378 0.233918 -8.077979 2.620198 9.927355 -0.043232 11.863199 -6.789152 0.000000 0.000000 0.000000 7.710824 -1.006195 -3.800783 -9.029893 7.686476 43.945733 1.315041 3.927091 -41.572854 0.000000 0.000000 0.000000 -3.550661 1.387358 24.365556 0.000000 0.000000 0.000000 14.502714 -0.853264 2.279520 -6.464470 1.666700 9.596910 -6.198418 -3.511983 -2.774708 0.000000 0.000000 0.000000 -14.093086 1.019035 1.662015 8.337102 -1.220395 9.416404 2.742424 4.584059 -8.907224 
0.114715 0.954438 1.981588 -1.444709 -0.930723 -4.198416 0.000000 0.000000 0.000000 -2.755629 -5.582610 -21.432349 0.834651 -1.243783 36.547785 0.241697 -1.124271 -1.033000 0.000000 0.000000 0.000000 11.269069 -1.395333 3.340630 -8.558183 2.588499 8.802171 -0.502218 13.299740 -8.262098 0.000000 0.000000 0.000000 7.825742 -1.073219 -3.496099 -9.476479 8.052220 43.669918 1.296180 4.083525 -41.404376 0.000000 0.000000 0.000000 -3.758862 1.569741 25.052844 0.000000 0.000000 0.000000 14.543978 -0.810064 2.298655 -6.792973 1.715026 9.634798 -6.328458 -3.676297 -3.121677 0.000000 0.000000 0.000000 -14.469577 1.583560 1.371355 8.515134 -1.086023 8.783662 3.007074 5.066083 -9.731656 
0.118511 0.950287 2.017829 -1.510405 -2.224250 -4.092262 0.000000 0.000000 0.000000 -2.228286 -6.029908 -23.525340 3.689244 -1.799102 27.337042 -1.404068 -4.419422 0.012535 0.000000 0.000000 0.000000 10.919203 -1.976332 5.642168 -8.998580 2.687487 8.683891 -1.226119 14.780496 -10.145156 0.000000 0.000000 0.000000 7.944682 -1.071714 -3.667406 -9.690717 8.408883 43.737493 1.379274 4.356900 -41.469656 0.000000 0.000000 0.000000 -3.956122 1.768735 25.429397 0.000000 0.000000 0.000000 14.562061 -0.576223 2.430140 -6.898726 1.752112 9.787487 -6.808482 -4.010972 -3.462222 0.000000 0.000000 0.000000 -14.427569 2.019862 1.100538 8.327075 -0.990137 8.318339 3.628680 5.498370 -9.806880 
